<?xml version="1.0" encoding="utf-8"?><svg xmlns="http://www.w3.org/2000/svg" xmlns:xlink="http://www.w3.org/1999/xlink"><symbol viewBox="0 0 17 18" id="call" xmlns="http://www.w3.org/2000/svg"><path d="M8.502 0h-.004C3.81 0 0 4.037 0 9c0 1.969.6 3.793 1.618 5.275L.558 17.62l3.268-1.106A8.097 8.097 0 008.502 18C13.19 18 17 13.962 17 9s-3.811-9-8.498-9zm4.946 12.71c-.205.612-1.019 1.12-1.668 1.27-.444.1-1.024.18-2.977-.678-2.498-1.096-4.107-3.783-4.232-3.958-.12-.174-1.01-1.423-1.01-2.714 0-1.292.62-1.92.87-2.19.205-.222.544-.324.869-.324.105 0 .2.006.285.01.25.012.375.027.54.445.204.523.704 1.815.763 1.947.06.133.121.313.036.487-.08.18-.15.26-.275.413-.125.153-.244.27-.37.434-.114.143-.244.296-.1.56.145.26.644 1.122 1.38 1.815.948.895 1.718 1.18 1.993 1.302.205.09.45.069.6-.1.19-.217.424-.577.663-.932.17-.254.385-.285.61-.195.23.084 1.444.72 1.694.851.25.133.414.196.475.307.06.112.06.635-.146 1.25z"/></symbol><symbol viewBox="0 0 10 11" id="i-delete" xmlns="http://www.w3.org/2000/svg"><g clip-path="url(#bclip0)"><path fill-rule="evenodd" clip-rule="evenodd" d="M6.186 5.357l3.56-3.634a.849.849 0 000-1.211.808.808 0 00-1.187 0L5 4.146 1.44.512a.808.808 0 00-1.186 0 .849.849 0 000 1.211l3.56 3.634-3.56 3.634a.849.849 0 000 1.212.808.808 0 001.187 0L5 6.568l3.56 3.635a.808.808 0 001.186 0 .849.849 0 000-1.212l-3.56-3.634z"/></g><defs><clipPath id="bclip0"><path transform="translate(0 .252)" d="M0 0h10v10.21H0z"/></clipPath></defs></symbol><symbol viewBox="0 0 102 102" id="pic-bg" xmlns="http://www.w3.org/2000/svg"><rect opacity=".5" x="10" y="20" width="82" height="82" rx="41"/><rect opacity=".5" x="20" y="10" width="82" height="82" rx="41"/><rect opacity=".5" y="10" width="82" height="82" rx="41"/><rect opacity=".5" x="10" width="82" height="82" rx="41"/><rect x="16" y="16" width="70" height="70" rx="35"/><defs><linearGradient id="cpaint0_linear" x1="51" y1="20" x2="51" y2="102" gradientUnits="userSpaceOnUse"><stop stop-color="#2A63A9"/><stop offset="0" stop-color="#86C4FF"/><stop offset="1" stop-color="#40D1FF"/></linearGradient><linearGradient id="cpaint1_linear" x1="61" y1="10" x2="61" y2="92" gradientUnits="userSpaceOnUse"><stop stop-color="#2A63A9"/><stop offset="0" stop-color="#86C4FF"/><stop offset="1" stop-color="#40D1FF"/></linearGradient><linearGradient id="cpaint2_linear" x1="41" y1="10" x2="41" y2="92" gradientUnits="userSpaceOnUse"><stop stop-color="#2A63A9"/><stop offset="0" stop-color="#86C4FF"/><stop offset="1" stop-color="#40D1FF"/></linearGradient><linearGradient id="cpaint3_linear" x1="51" y1="0" x2="51" y2="82" gradientUnits="userSpaceOnUse"><stop stop-color="#2A63A9"/><stop offset="0" stop-color="#86C4FF"/><stop offset="1" stop-color="#40D1FF"/></linearGradient></defs></symbol><symbol viewBox="0 0 43 37" id="pic1" xmlns="http://www.w3.org/2000/svg"><path d="M35.871 17.096c0-.792-.679-1.358-1.358-1.358H10.75c-.792 0-1.358.68-1.358 1.358 0 .679.68 1.358 1.358 1.358h21.574c1.458 0 3.547.1 3.547-1.358zm-25.121 4.3c-.792 0-1.358.679-1.358 1.358s.68 1.358 1.358 1.358h9.845c.792 0 1.358-.68 1.358-1.358 0-.679-.68-1.358-1.358-1.358H10.75zm15.842-8.487c.792 0 1.358-.679 1.358-1.358s-.679-1.358-1.358-1.358H17.54c-.793 0-1.358.68-1.358 1.358 0 .68.678 1.358 1.358 1.358h9.052zM40.737.914H2.263A2.27 2.27 0 000 3.178v28.29a2.27 2.27 0 002.263 2.262H21.5a2.263 2.263 0 000-4.526H10.598c-1.478 0-2.608-1.373-3.653-2.419-1.045-1.045-2.419-2.174-2.419-3.653v-11.62c0-1.478 1.374-2.607 2.42-3.652C7.99 6.814 9.12 5.44 10.597 5.44h21.804c1.478 0 2.608 1.374 3.653 2.42 1.045 1.045 2.419 2.174 2.419 3.652v8.943c0 2.957-3.395 5.792-3.395 8.749 0 2.5 2.026 4.526 4.526 4.526h1.132A2.27 2.27 0 0043 31.467V3.177A2.27 2.27 0 0040.737.915z"/><path d="M29.421 32.26c-1.35 0-2.829.908-2.829 2.257v1.816c0 .34.226.453.453.453.246 0 .439-.187.637-.332l1.101-.808c.199-.145.392-.331.638-.331s.44.186.638.331l1.1.808c.2.145.392.331.638.331a.487.487 0 00.453-.452v-1.816c0-1.35-1.48-2.258-2.829-2.258zm0-2.83c2.15 0 3.96-1.81 3.96-3.96s-1.81-3.96-3.96-3.96-3.96 1.81-3.96 3.96 1.81 3.96 3.96 3.96z"/><defs><linearGradient id="dpaint0_linear" x1="21.5" y1=".914" x2="21.5" y2="33.73" gradientUnits="userSpaceOnUse"><stop offset="0" stop-color="#86C4FF"/><stop offset=".12" stop-color="#2A63A9"/><stop offset="1" stop-color="#40D1FF"/></linearGradient><linearGradient id="dpaint1_linear" x1="29.421" y1="21.509" x2="29.421" y2="36.785" gradientUnits="userSpaceOnUse"><stop offset="0" stop-color="#86C4FF"/><stop offset=".12" stop-color="#2A63A9"/><stop offset="1" stop-color="#40D1FF"/></linearGradient></defs></symbol><symbol viewBox="0 0 27 38" id="pic2" xmlns="http://www.w3.org/2000/svg"><path d="M18.5 9c-.8 0-1.5.7-1.5 1.5v4c0 .8.7 1.5 1.5 1.5s1.5-.7 1.5-1.5v-4c0-.8-.7-1.5-1.5-1.5z"/><path d="M23 0H4C1.8 0 0 1.8 0 4v30c0 2.2 1.8 4 4 4h19c2.2 0 4-1.8 4-4V4c0-2.2-1.8-4-4-4zM7.5 34h-2c-.8 0-1.5-.7-1.5-1.5S4.7 31 5.5 31h2c.8 0 1.5.7 1.5 1.5S8.3 34 7.5 34zm0-5h-2c-.8 0-1.5-.7-1.5-1.5S4.7 26 5.5 26h2c.8 0 1.5.7 1.5 1.5S8.3 29 7.5 29zm0-5h-2c-.8 0-1.5-.7-1.5-1.5S4.7 21 5.5 21h2c.8 0 1.5.7 1.5 1.5S8.3 24 7.5 24zm7 10h-2c-.8 0-1.5-.7-1.5-1.5s.7-1.5 1.5-1.5h2c.8 0 1.5.7 1.5 1.5s-.7 1.5-1.5 1.5zm0-5h-2c-.8 0-1.5-.7-1.5-1.5s.7-1.5 1.5-1.5h2c.8 0 1.5.7 1.5 1.5s-.7 1.5-1.5 1.5zm0-5h-2c-.8 0-1.5-.7-1.5-1.5s.7-1.5 1.5-1.5h2c.8 0 1.5.7 1.5 1.5s-.7 1.5-1.5 1.5zm8.5 8.5c0 .8-.7 1.5-1.5 1.5h-2c-.8 0-1.5-.7-1.5-1.5v-5c0-.8.7-1.5 1.5-1.5h2c.8 0 1.5.7 1.5 1.5v5zM21.5 24h-2c-.8 0-1.5-.7-1.5-1.5s.7-1.5 1.5-1.5h2c.8 0 1.5.7 1.5 1.5s-.7 1.5-1.5 1.5zm1.5-7.5c0 .6-.4 1-1 1H5c-.6 0-1-.4-1-1v-9c0-.6.4-1 1-1h17c.6 0 1 .4 1 1v9z"/><defs><linearGradient id="epaint0_linear" x1="18.5" y1="9" x2="18.5" y2="16" gradientUnits="userSpaceOnUse"><stop offset="0" stop-color="#86C4FF"/><stop offset=".12" stop-color="#2A63A9"/><stop offset="1" stop-color="#40D1FF"/></linearGradient><linearGradient id="epaint1_linear" x1="13.5" y1="0" x2="13.5" y2="38" gradientUnits="userSpaceOnUse"><stop offset="0" stop-color="#86C4FF"/><stop offset=".12" stop-color="#2A63A9"/><stop offset="1" stop-color="#40D1FF"/></linearGradient></defs></symbol><symbol viewBox="0 0 39 32" id="pic3" xmlns="http://www.w3.org/2000/svg"><path d="M19.5 12.5c-2.8 0-5 2-5 6s2.2 6 5 6 5-2 5-6-2.2-6-5-6zM9 16.5c-1.1 0-2 .9-2 2s.9 2 2 2 2-.9 2-2-.9-2-2-2zm21 0c-1.1 0-2 .9-2 2s.9 2 2 2 2-.9 2-2-.9-2-2-2zM33.6 0h-28c-.8 0-1.5.7-1.5 1.5S4.8 3 5.6 3h28c.8 0 1.5-.7 1.5-1.5 0-.9-.7-1.5-1.5-1.5z"/><path d="M38.5 6.2l-.3-.3c-.3-.3-.8-.5-1.3-.5H2c-1.1 0-2 .9-2 2v22c0 1.1.9 2 2 2h35c1.1 0 2-.9 2-2v-22c0-.4-.2-.9-.5-1.2zm-3 13.762c0 1.954-1.806 3.469-3.188 4.85C30.931 26.195 29.416 28 27.462 28H11.538c-1.954 0-3.469-1.806-4.85-3.188-1.382-1.381-3.188-2.896-3.188-4.85v-2.924c0-1.954 1.806-3.469 3.188-4.85C8.069 10.806 9.584 9 11.537 9h15.924c1.954 0 3.469 1.806 4.85 3.188 1.382 1.381 3.188 2.896 3.188 4.85v2.924z"/><defs><linearGradient id="fpaint0_linear" x1="19.6" y1="0" x2="19.6" y2="24.5" gradientUnits="userSpaceOnUse"><stop offset="0" stop-color="#86C4FF"/><stop offset=".12" stop-color="#2A63A9"/><stop offset="1" stop-color="#40D1FF"/></linearGradient><linearGradient id="fpaint1_linear" x1="19.5" y1="5.4" x2="19.5" y2="31.4" gradientUnits="userSpaceOnUse"><stop offset="0" stop-color="#86C4FF"/><stop offset=".12" stop-color="#2A63A9"/><stop offset="1" stop-color="#40D1FF"/></linearGradient></defs></symbol><symbol viewBox="0 0 35 42" id="pic4" xmlns="http://www.w3.org/2000/svg"><path d="M31.028 32.115C29.905 31.467 29 30.375 29 29.08c0-.6-.4-1-1-1h-3.657A2.343 2.343 0 0022 30.422c0 .43-.118.85-.342 1.218l-2.416 3.97c-.028.045-.067.09-.097.136a.946.946 0 00-.145.514v1.419c0 .8-.7 1.5-1.5 1.5s-1.5-.7-1.5-1.5v-1.42a.946.946 0 00-.146-.513c-.029-.045-.068-.09-.096-.137l-2.416-3.969A2.343 2.343 0 0113 30.422a2.343 2.343 0 00-2.343-2.343H7c-.6 0-1 .4-1 1 0 1.289-.92 2.365-2.04 3.004C1.613 33.422 0 35.964 0 38.879v1.7c0 .3.2.5.5.5h34c.3 0 .5-.2.5-.5v-1.7c0-2.92-1.619-5.403-3.972-6.764zM25 21.079c-.552 0-.987-.455-1.125-.99A4.016 4.016 0 0020 17.08h-5a4.016 4.016 0 00-3.875 3.01c-.138.535-.573.99-1.125.99-.6 0-1 .4-1 1s.4 1 1 1h15c.6 0 1-.4 1-1 0-.5-.4-1-1-1zm5.5-11a3.56 3.56 0 01-3.428-2.6l-1.372-4.9c-.2-.9-.8-1.7-1.7-2.1-1-.6-2.3-.6-3.4-.2-2 .7-4.1.7-6.1 0-1.1-.4-2.4-.3-3.4.2-.9.5-1.5 1.2-1.7 2.1l-1.8 6.4c-.177.65-.767 1.1-1.44 1.1H4.6c-.8 0-1.5.7-1.5 1.5s.7 1.5 1.5 1.5h.9a1.5 1.5 0 011.5 1.5 1.5 1.5 0 003 0 1.5 1.5 0 011.5-1.5h12a1.5 1.5 0 011.5 1.5 1.5 1.5 0 003 0 1.5 1.5 0 011.5-1.5h1c.8 0 1.5-.7 1.5-1.5s-.7-1.5-1.5-1.5z"/><defs><linearGradient id="gpaint0_linear" x1="17.5" y1="0" x2="17.5" y2="41.079" gradientUnits="userSpaceOnUse"><stop offset="0" stop-color="#86C4FF"/><stop offset=".12" stop-color="#2A63A9"/><stop offset="1" stop-color="#40D1FF"/></linearGradient><linearGradient id="gpaint1_linear" x1="17.5" y1="0" x2="17.5" y2="41.079" gradientUnits="userSpaceOnUse"><stop offset="0" stop-color="#86C4FF"/><stop offset=".12" stop-color="#2A63A9"/><stop offset="1" stop-color="#40D1FF"/></linearGradient></defs></symbol><symbol viewBox="0 0 16 16" id="skype" xmlns="http://www.w3.org/2000/svg"><path d="M15.524 9.689c1.157-5.201-3.4-9.926-8.75-9.019C3.867-1.133 0 .905 0 4.36c0 .804.222 1.557.607 2.205-1.075 5.213 3.519 9.87 8.866 8.901 3.78 1.999 7.956-1.987 6.05-5.777zm-5.087 3.136c-1.404.578-3.714.58-5.112-.151-1.994-1.063-2.348-3.455-.628-3.455 1.296 0 .885 1.51 2.194 2.127.6.277 1.892.306 2.643-.2.741-.496.673-1.277.27-1.65-1.067-.985-4.122-.594-5.519-2.32-.607-.748-.721-2.068.025-3.026 1.3-1.673 5.115-1.774 6.755-.511 1.514 1.172 1.106 2.727-.117 2.727-1.47 0-.697-1.923-3.07-1.923-1.72 0-2.397 1.224-1.185 1.819 1.642.816 5.827.543 5.827 3.731-.003 1.326-.816 2.315-2.083 2.832z"/></symbol></svg>