<svg width="1920" height="143" viewBox="0 0 1920 143" fill="none" xmlns="http://www.w3.org/2000/svg">
<path opacity="0.5" fill-rule="evenodd" clip-rule="evenodd" d="M1920 69.5807L1881.2 73.6595C1815.4 77.7384 1683.8 85.8961 1552.2 65.5018C1420.6 45.1075 1289 -3.83868 1157.4 0.240173C1025.8 4.31903 894.2 61.423 762.6 85.8961C631 110.369 499.4 102.211 367.8 94.0538C236.2 85.8961 104.6 77.7384 38.8 73.6595L0 69.5807V143L38.8 143C104.6 143 236.2 143 367.8 143C499.4 143 631 143 762.6 143C894.2 143 1025.8 143 1157.4 143C1289 143 1420.6 143 1552.2 143C1683.8 143 1815.4 143 1881.2 143H1920V69.5807Z" fill="white"/>
<path fill-rule="evenodd" clip-rule="evenodd" d="M0 69.5807L38.8 73.6595C104.6 77.7384 236.2 85.8961 367.8 65.5018C499.4 45.1075 631 -3.83868 762.6 0.240173C894.2 4.31903 1025.8 61.423 1157.4 85.8961C1289 110.369 1420.6 102.211 1552.2 94.0538C1683.8 85.8961 1815.4 77.7384 1881.2 73.6595L1920 69.5807V143L1881.2 143C1815.4 143 1683.8 143 1552.2 143C1420.6 143 1289 143 1157.4 143C1025.8 143 894.2 143 762.6 143C631 143 499.4 143 367.8 143C236.2 143 104.6 143 38.8 143L18 143C9.51472 143 5.27208 143 2.63604 140.364C0 137.728 0 133.485 0 125V69.5807Z" fill="white"/>
</svg>
