<svg width="205" height="44" viewBox="0 0 205 44" fill="none" xmlns="http://www.w3.org/2000/svg">
<path d="M50.7653 6.04688V16H49.4528V7.12695H45.8844L45.7067 11.0713C45.6383 12.3929 45.5016 13.3864 45.2965 14.0518C45.096 14.7171 44.7998 15.207 44.4078 15.5215C44.0159 15.8314 43.4918 15.9909 42.8356 16H42.4049V14.9268L42.6783 14.9131C43.1022 14.8812 43.428 14.7445 43.6559 14.5029C43.8837 14.2568 44.0569 13.8672 44.1754 13.334C44.2939 12.8008 44.3782 11.9805 44.4283 10.873L44.6334 6.04688H50.7653ZM57.7379 8.60352H59.0026V16H57.7379V10.6064L54.3268 16H53.0621V8.60352H54.3268V14.0039L57.7379 8.60352ZM61.1422 8.60352H62.4137V14.9678H65.818V8.60352H67.0826V14.9678H67.9645L67.8414 18.1943H66.7067V16H61.1422V8.60352ZM72.401 16.1367C71.3984 16.1367 70.5826 15.8086 69.9537 15.1523C69.3248 14.4915 69.0104 13.6097 69.0104 12.5068V12.2744C69.0104 11.5407 69.1494 10.8867 69.4274 10.3125C69.7099 9.73372 70.1018 9.28255 70.6031 8.95898C71.109 8.63086 71.6559 8.4668 72.2438 8.4668C73.2054 8.4668 73.9528 8.78353 74.486 9.41699C75.0192 10.0505 75.2858 10.9574 75.2858 12.1377V12.6641H70.275C70.2933 13.3932 70.5052 13.9834 70.9108 14.4346C71.3209 14.8812 71.8405 15.1045 72.4694 15.1045C72.916 15.1045 73.2942 15.0133 73.6041 14.8311C73.914 14.6488 74.1852 14.4072 74.4176 14.1064L75.1901 14.708C74.5703 15.6605 73.6406 16.1367 72.401 16.1367ZM72.2438 9.50586C71.7334 9.50586 71.305 9.69271 70.9586 10.0664C70.6123 10.4355 70.3981 10.9551 70.316 11.625H74.0211V11.5293C73.9847 10.8867 73.8115 10.39 73.5016 10.0391C73.1917 9.68359 72.7724 9.50586 72.2438 9.50586ZM82.7985 16H81.5338V12.8418H78.1364V16H76.8649V8.60352H78.1364V11.8096H81.5338V8.60352H82.7985V16ZM88.903 10.627C88.903 10.2806 88.7708 10.0072 88.5065 9.80664C88.2421 9.60156 87.8798 9.49902 87.4196 9.49902C86.9729 9.49902 86.5992 9.61523 86.2985 9.84766C86.0022 10.0801 85.8541 10.3535 85.8541 10.668H84.5963C84.5963 10.0254 84.8652 9.49902 85.403 9.08887C85.9407 8.67871 86.6129 8.47363 87.4196 8.47363C88.2854 8.47363 88.9599 8.66048 89.443 9.03418C89.9261 9.40332 90.1676 9.93197 90.1676 10.6201C90.1676 10.9528 90.0673 11.2581 89.8668 11.5361C89.6663 11.8141 89.3815 12.0352 89.0123 12.1992C89.8737 12.4909 90.3043 13.0651 90.3043 13.9219C90.3043 14.6009 90.0423 15.1387 89.5182 15.5352C88.9941 15.9316 88.2946 16.1299 87.4196 16.1299C86.5673 16.1299 85.8632 15.9225 85.3073 15.5078C84.7558 15.0885 84.4801 14.5234 84.4801 13.8125H85.7379C85.7379 14.1725 85.8974 14.4824 86.2164 14.7422C86.54 14.9974 86.941 15.125 87.4196 15.125C87.9026 15.125 88.2923 15.0133 88.5885 14.79C88.8847 14.5667 89.0328 14.2773 89.0328 13.9219C89.0328 13.5072 88.9075 13.2109 88.6569 13.0332C88.4108 12.8509 88.0257 12.7598 87.5016 12.7598H86.2369V11.6934H87.611C88.4723 11.6706 88.903 11.3151 88.903 10.627ZM96.7301 8.60352H97.9948V16H96.7301V10.6064L93.319 16H92.0543V8.60352H93.319V14.0039L96.7301 8.60352ZM105.678 8.60352V16H104.407V13.1221H102.5L100.756 16H99.3893L101.249 12.9307C100.775 12.7575 100.41 12.4909 100.155 12.1309C99.9043 11.7663 99.7789 11.3424 99.7789 10.8594C99.7789 10.1849 100.032 9.64258 100.538 9.23242C101.044 8.81771 101.72 8.60807 102.568 8.60352H105.678ZM101.05 10.873C101.05 11.2331 101.173 11.5247 101.42 11.748C101.666 11.9668 101.991 12.0785 102.397 12.083H104.407V9.62891H102.589C102.119 9.62891 101.745 9.74512 101.467 9.97754C101.189 10.2054 101.05 10.5039 101.05 10.873ZM115.44 14.3252L117.956 8.60352H119.535V16H118.27V10.6201L115.878 16H115.003L112.562 10.5039V16H111.297V8.60352H112.938L115.44 14.3252ZM126.357 8.60352H127.622V16H126.357V10.6064L122.946 16H121.681V8.60352H122.946V14.0039L126.357 8.60352ZM135.695 16H134.43V12.8418H131.033V16H129.761V8.60352H131.033V11.8096H134.43V8.60352H135.695V16ZM142.517 8.60352H143.782V16H142.517V10.6064L139.106 16H137.841V8.60352H139.106V14.0039L142.517 8.60352ZM148.779 15.1045C149.23 15.1045 149.624 14.9678 149.962 14.6943C150.299 14.4209 150.486 14.0791 150.522 13.6689H151.718C151.696 14.0928 151.55 14.4961 151.281 14.8789C151.012 15.2617 150.652 15.5671 150.201 15.7949C149.754 16.0228 149.28 16.1367 148.779 16.1367C147.772 16.1367 146.97 15.8018 146.373 15.1318C145.78 14.4574 145.484 13.5368 145.484 12.3701V12.1582C145.484 11.4382 145.616 10.7979 145.88 10.2373C146.145 9.67676 146.523 9.24154 147.015 8.93164C147.512 8.62174 148.098 8.4668 148.772 8.4668C149.602 8.4668 150.29 8.71517 150.837 9.21191C151.388 9.70866 151.682 10.3535 151.718 11.1465H150.522C150.486 10.668 150.303 10.276 149.975 9.9707C149.652 9.66081 149.251 9.50586 148.772 9.50586C148.13 9.50586 147.63 9.73828 147.275 10.2031C146.924 10.6634 146.749 11.3311 146.749 12.2061V12.4453C146.749 13.2975 146.924 13.9538 147.275 14.4141C147.626 14.8743 148.127 15.1045 148.779 15.1045ZM158.636 9.62891H156.155V16H154.89V9.62891H152.457V8.60352H158.636V9.62891ZM162.389 16.1367C161.387 16.1367 160.571 15.8086 159.942 15.1523C159.313 14.4915 158.999 13.6097 158.999 12.5068V12.2744C158.999 11.5407 159.138 10.8867 159.416 10.3125C159.698 9.73372 160.09 9.28255 160.591 8.95898C161.097 8.63086 161.644 8.4668 162.232 8.4668C163.194 8.4668 163.941 8.78353 164.474 9.41699C165.007 10.0505 165.274 10.9574 165.274 12.1377V12.6641H160.263C160.282 13.3932 160.493 13.9834 160.899 14.4346C161.309 14.8812 161.829 15.1045 162.458 15.1045C162.904 15.1045 163.283 15.0133 163.592 14.8311C163.902 14.6488 164.173 14.4072 164.406 14.1064L165.178 14.708C164.559 15.6605 163.629 16.1367 162.389 16.1367ZM162.232 9.50586C161.722 9.50586 161.293 9.69271 160.947 10.0664C160.601 10.4355 160.386 10.9551 160.304 11.625H164.009V11.5293C163.973 10.8867 163.8 10.39 163.49 10.0391C163.18 9.68359 162.761 9.50586 162.232 9.50586ZM172.992 12.3838C172.992 13.5094 172.734 14.4163 172.219 15.1045C171.704 15.7926 171.007 16.1367 170.128 16.1367C169.23 16.1367 168.523 15.8519 168.008 15.2822V18.8438H166.744V8.60352H167.899L167.961 9.42383C168.476 8.78581 169.191 8.4668 170.107 8.4668C170.996 8.4668 171.698 8.80176 172.213 9.47168C172.732 10.1416 172.992 11.0736 172.992 12.2676V12.3838ZM171.727 12.2402C171.727 11.4062 171.549 10.7477 171.194 10.2646C170.839 9.78158 170.351 9.54004 169.731 9.54004C168.965 9.54004 168.391 9.87956 168.008 10.5586V14.0928C168.387 14.7673 168.965 15.1045 169.745 15.1045C170.351 15.1045 170.832 14.8652 171.187 14.3867C171.547 13.9036 171.727 13.1882 171.727 12.2402ZM177.572 15.1045C178.023 15.1045 178.417 14.9678 178.755 14.6943C179.092 14.4209 179.279 14.0791 179.315 13.6689H180.511C180.489 14.0928 180.343 14.4961 180.074 14.8789C179.805 15.2617 179.445 15.5671 178.994 15.7949C178.547 16.0228 178.073 16.1367 177.572 16.1367C176.565 16.1367 175.763 15.8018 175.166 15.1318C174.573 14.4574 174.277 13.5368 174.277 12.3701V12.1582C174.277 11.4382 174.409 10.7979 174.673 10.2373C174.938 9.67676 175.316 9.24154 175.808 8.93164C176.305 8.62174 176.891 8.4668 177.565 8.4668C178.394 8.4668 179.083 8.71517 179.63 9.21191C180.181 9.70866 180.475 10.3535 180.511 11.1465H179.315C179.279 10.668 179.096 10.276 178.768 9.9707C178.445 9.66081 178.044 9.50586 177.565 9.50586C176.922 9.50586 176.423 9.73828 176.068 10.2031C175.717 10.6634 175.542 11.3311 175.542 12.2061V12.4453C175.542 13.2975 175.717 13.9538 176.068 14.4141C176.419 14.8743 176.92 15.1045 177.572 15.1045ZM187.429 9.62891H184.948V16H183.683V9.62891H181.25V8.60352H187.429V9.62891ZM188.776 16V8.60352H191.661C192.645 8.60352 193.399 8.77669 193.923 9.12305C194.452 9.46484 194.716 9.96842 194.716 10.6338C194.716 10.9756 194.614 11.2855 194.409 11.5635C194.204 11.8369 193.901 12.0465 193.5 12.1924C193.946 12.2972 194.304 12.5023 194.573 12.8076C194.846 13.113 194.983 13.4775 194.983 13.9014C194.983 14.5804 194.732 15.0999 194.231 15.46C193.734 15.82 193.03 16 192.119 16H188.776ZM190.041 12.7529V14.9814H192.132C192.661 14.9814 193.055 14.8835 193.315 14.6875C193.579 14.4915 193.712 14.2158 193.712 13.8604C193.712 13.1221 193.169 12.7529 192.085 12.7529H190.041ZM190.041 11.7412H191.674C192.859 11.7412 193.452 11.3949 193.452 10.7021C193.452 10.0094 192.891 9.65169 191.77 9.62891H190.041V11.7412ZM201.224 16C201.151 15.8542 201.092 15.5944 201.047 15.2207C200.459 15.8314 199.757 16.1367 198.941 16.1367C198.212 16.1367 197.613 15.9316 197.143 15.5215C196.678 15.1068 196.446 14.5827 196.446 13.9492C196.446 13.179 196.738 12.582 197.321 12.1582C197.909 11.7298 198.734 11.5156 199.796 11.5156H201.026V10.9346C201.026 10.4925 200.894 10.1416 200.63 9.88184C200.365 9.61751 199.976 9.48535 199.461 9.48535C199.009 9.48535 198.631 9.59928 198.326 9.82715C198.02 10.055 197.868 10.3307 197.868 10.6543H196.596C196.596 10.2852 196.726 9.92969 196.986 9.58789C197.25 9.24154 197.606 8.9681 198.052 8.76758C198.504 8.56706 198.998 8.4668 199.536 8.4668C200.388 8.4668 201.056 8.68099 201.539 9.10938C202.022 9.5332 202.272 10.1188 202.291 10.8662V14.2705C202.291 14.9495 202.377 15.4896 202.55 15.8906V16H201.224ZM199.126 15.0361C199.522 15.0361 199.898 14.9336 200.254 14.7285C200.609 14.5234 200.866 14.2568 201.026 13.9287V12.4111H200.035C198.485 12.4111 197.711 12.8646 197.711 13.7715C197.711 14.168 197.843 14.4779 198.107 14.7012C198.371 14.9245 198.711 15.0361 199.126 15.0361ZM42.7672 33.4385C42.7672 32.2035 43.0065 31.2327 43.485 30.5264C43.9635 29.82 44.6198 29.4668 45.4537 29.4668C45.8411 29.4668 46.1806 29.5329 46.4723 29.665V26.5H47.7369V29.7061C48.0559 29.5465 48.4296 29.4668 48.858 29.4668C49.6966 29.4668 50.3551 29.82 50.8336 30.5264C51.3121 31.2327 51.5514 32.2513 51.5514 33.582C51.5514 34.6712 51.3121 35.5371 50.8336 36.1797C50.3597 36.8223 49.7057 37.1436 48.8717 37.1436C48.4296 37.1436 48.0514 37.0706 47.7369 36.9248V39.8438H46.4723V36.9453C46.1715 37.0775 45.8274 37.1436 45.4401 37.1436C44.6106 37.1436 43.9567 36.8223 43.4781 36.1797C43.0042 35.5371 42.7672 34.6576 42.7672 33.541V33.4385ZM50.2867 33.4385C50.2867 32.5088 50.1272 31.7887 49.8082 31.2783C49.4892 30.7633 49.0494 30.5059 48.4889 30.5059C48.2018 30.5059 47.9511 30.5514 47.7369 30.6426V35.9951C47.942 36.0726 48.1972 36.1113 48.5026 36.1113C49.0677 36.1113 49.5052 35.8926 49.8151 35.4551C50.1295 35.0176 50.2867 34.3454 50.2867 33.4385ZM44.0319 33.582C44.0319 34.4115 44.18 35.0404 44.4762 35.4688C44.7724 35.8971 45.1985 36.1113 45.7545 36.1113C46.0188 36.1113 46.2581 36.0703 46.4723 35.9883V30.6221C46.2809 30.5446 46.0462 30.5059 45.7682 30.5059C45.2122 30.5059 44.7838 30.7542 44.483 31.251C44.1823 31.7477 44.0319 32.5247 44.0319 33.582ZM57.984 29.6035H59.2487V37H57.984V31.6064L54.5729 37H53.3082V29.6035H54.5729V35.0039L57.984 29.6035ZM67.3219 37H66.0573V33.8418H62.6598V37H61.3883V29.6035H62.6598V32.8096H66.0573V29.6035H67.3219V37ZM73.9254 37C73.8525 36.8542 73.7933 36.5944 73.7477 36.2207C73.1598 36.8314 72.458 37.1367 71.6422 37.1367C70.913 37.1367 70.3138 36.9316 69.8444 36.5215C69.3795 36.1068 69.1471 35.5827 69.1471 34.9492C69.1471 34.179 69.4388 33.582 70.0221 33.1582C70.61 32.7298 71.4349 32.5156 72.4967 32.5156H73.7272V31.9346C73.7272 31.4925 73.595 31.1416 73.3307 30.8818C73.0664 30.6175 72.6767 30.4854 72.1617 30.4854C71.7106 30.4854 71.3323 30.5993 71.027 30.8271C70.7216 31.055 70.569 31.3307 70.569 31.6543H69.2975C69.2975 31.2852 69.4274 30.9297 69.6871 30.5879C69.9515 30.2415 70.3069 29.9681 70.7535 29.7676C71.2047 29.5671 71.6992 29.4668 72.2369 29.4668C73.0892 29.4668 73.7568 29.681 74.2399 30.1094C74.7229 30.5332 74.9736 31.1188 74.9918 31.8662V35.2705C74.9918 35.9495 75.0784 36.4896 75.2516 36.8906V37H73.9254ZM71.8268 36.0361C72.2233 36.0361 72.5992 35.9336 72.9547 35.7285C73.3102 35.5234 73.5677 35.2568 73.7272 34.9287V33.4111H72.736C71.1865 33.4111 70.4117 33.8646 70.4117 34.7715C70.4117 35.168 70.5439 35.4779 70.8082 35.7012C71.0726 35.9245 71.4121 36.0361 71.8268 36.0361ZM83.0172 37H81.7526V33.8418H78.3551V37H77.0836V29.6035H78.3551V32.8096H81.7526V29.6035H83.0172V37ZM88.0211 36.1045C88.4723 36.1045 88.8665 35.9678 89.2037 35.6943C89.541 35.4209 89.7278 35.0791 89.7643 34.6689H90.9606C90.9378 35.0928 90.792 35.4961 90.5231 35.8789C90.2542 36.2617 89.8942 36.5671 89.443 36.7949C88.9964 37.0228 88.5224 37.1367 88.0211 37.1367C87.014 37.1367 86.2119 36.8018 85.6149 36.1318C85.0224 35.4574 84.7262 34.5368 84.7262 33.3701V33.1582C84.7262 32.4382 84.8584 31.7979 85.1227 31.2373C85.387 30.6768 85.7653 30.2415 86.2574 29.9316C86.7542 29.6217 87.3398 29.4668 88.0143 29.4668C88.8437 29.4668 89.5319 29.7152 90.0787 30.2119C90.6302 30.7087 90.9241 31.3535 90.9606 32.1465H89.7643C89.7278 31.668 89.5455 31.276 89.2174 30.9707C88.8938 30.6608 88.4928 30.5059 88.0143 30.5059C87.3717 30.5059 86.8727 30.7383 86.5172 31.2031C86.1663 31.6634 85.9908 32.3311 85.9908 33.2061V33.4453C85.9908 34.2975 86.1663 34.9538 86.5172 35.4141C86.8681 35.8743 87.3694 36.1045 88.0211 36.1045ZM92.0475 33.2334C92.0475 32.5088 92.1888 31.8571 92.4713 31.2783C92.7584 30.6995 93.1549 30.2529 93.6608 29.9385C94.1712 29.624 94.7522 29.4668 95.4039 29.4668C96.4111 29.4668 97.2246 29.8154 97.8444 30.5127C98.4687 31.21 98.7809 32.1374 98.7809 33.2949V33.3838C98.7809 34.1038 98.6419 34.751 98.3639 35.3252C98.0905 35.8949 97.6962 36.3392 97.1813 36.6582C96.6709 36.9772 96.083 37.1367 95.4176 37.1367C94.415 37.1367 93.6015 36.7881 92.9772 36.0908C92.3574 35.3936 92.0475 34.4707 92.0475 33.3223V33.2334ZM93.319 33.3838C93.319 34.2041 93.5081 34.8626 93.8864 35.3594C94.2692 35.8561 94.7796 36.1045 95.4176 36.1045C96.0602 36.1045 96.5706 35.8538 96.9489 35.3525C97.3271 34.8467 97.5162 34.1403 97.5162 33.2334C97.5162 32.4222 97.3226 31.766 96.9352 31.2646C96.5524 30.7588 96.042 30.5059 95.4039 30.5059C94.7796 30.5059 94.276 30.7542 93.8932 31.251C93.5104 31.7477 93.319 32.4587 93.319 33.3838ZM100.483 37V29.6035H103.368C104.352 29.6035 105.106 29.7767 105.63 30.123C106.159 30.4648 106.423 30.9684 106.423 31.6338C106.423 31.9756 106.321 32.2855 106.116 32.5635C105.911 32.8369 105.608 33.0465 105.207 33.1924C105.653 33.2972 106.011 33.5023 106.28 33.8076C106.553 34.113 106.69 34.4775 106.69 34.9014C106.69 35.5804 106.439 36.0999 105.938 36.46C105.441 36.82 104.737 37 103.826 37H100.483ZM101.748 33.7529V35.9814H103.839C104.368 35.9814 104.762 35.8835 105.022 35.6875C105.286 35.4915 105.419 35.2158 105.419 34.8604C105.419 34.1221 104.876 33.7529 103.792 33.7529H101.748ZM101.748 32.7412H103.381C104.566 32.7412 105.159 32.3949 105.159 31.7021C105.159 31.0094 104.598 30.6517 103.477 30.6289H101.748V32.7412ZM118.311 27.0469H119.624V37H118.311V29.3301L113.41 37H112.09V27.0469H113.41V34.7168L118.311 27.0469ZM125.885 31.627C125.885 31.2806 125.753 31.0072 125.489 30.8066C125.225 30.6016 124.862 30.499 124.402 30.499C123.955 30.499 123.582 30.6152 123.281 30.8477C122.985 31.0801 122.837 31.3535 122.837 31.668H121.579C121.579 31.0254 121.848 30.499 122.385 30.0889C122.923 29.6787 123.595 29.4736 124.402 29.4736C125.268 29.4736 125.942 29.6605 126.425 30.0342C126.908 30.4033 127.15 30.932 127.15 31.6201C127.15 31.9528 127.05 32.2581 126.849 32.5361C126.649 32.8141 126.364 33.0352 125.995 33.1992C126.856 33.4909 127.287 34.0651 127.287 34.9219C127.287 35.6009 127.025 36.1387 126.501 36.5352C125.977 36.9316 125.277 37.1299 124.402 37.1299C123.55 37.1299 122.846 36.9225 122.29 36.5078C121.738 36.0885 121.463 35.5234 121.463 34.8125H122.72C122.72 35.1725 122.88 35.4824 123.199 35.7422C123.522 35.9974 123.923 36.125 124.402 36.125C124.885 36.125 125.275 36.0133 125.571 35.79C125.867 35.5667 126.015 35.2773 126.015 34.9219C126.015 34.5072 125.89 34.2109 125.639 34.0332C125.393 33.8509 125.008 33.7598 124.484 33.7598H123.219V32.6934H124.593C125.455 32.6706 125.885 32.3151 125.885 31.627ZM135.175 33.3838C135.175 34.5094 134.918 35.4163 134.403 36.1045C133.888 36.7926 133.191 37.1367 132.311 37.1367C131.413 37.1367 130.707 36.8519 130.192 36.2822V39.8438H128.927V29.6035H130.083L130.144 30.4238C130.659 29.7858 131.375 29.4668 132.291 29.4668C133.179 29.4668 133.881 29.8018 134.396 30.4717C134.916 31.1416 135.175 32.0736 135.175 33.2676V33.3838ZM133.911 33.2402C133.911 32.4062 133.733 31.7477 133.378 31.2646C133.022 30.7816 132.534 30.54 131.915 30.54C131.149 30.54 130.575 30.8796 130.192 31.5586V35.0928C130.57 35.7673 131.149 36.1045 131.928 36.1045C132.534 36.1045 133.015 35.8652 133.371 35.3867C133.731 34.9036 133.911 34.1882 133.911 33.2402ZM141.355 37C141.282 36.8542 141.223 36.5944 141.177 36.2207C140.589 36.8314 139.888 37.1367 139.072 37.1367C138.343 37.1367 137.743 36.9316 137.274 36.5215C136.809 36.1068 136.577 35.5827 136.577 34.9492C136.577 34.179 136.868 33.582 137.452 33.1582C138.04 32.7298 138.865 32.5156 139.926 32.5156H141.157V31.9346C141.157 31.4925 141.025 31.1416 140.76 30.8818C140.496 30.6175 140.106 30.4854 139.591 30.4854C139.14 30.4854 138.762 30.5993 138.457 30.8271C138.151 31.055 137.999 31.3307 137.999 31.6543H136.727C136.727 31.2852 136.857 30.9297 137.117 30.5879C137.381 30.2415 137.737 29.9681 138.183 29.7676C138.634 29.5671 139.129 29.4668 139.667 29.4668C140.519 29.4668 141.186 29.681 141.67 30.1094C142.153 30.5332 142.403 31.1188 142.422 31.8662V35.2705C142.422 35.9495 142.508 36.4896 142.681 36.8906V37H141.355ZM139.256 36.0361C139.653 36.0361 140.029 35.9336 140.384 35.7285C140.74 35.5234 140.997 35.2568 141.157 34.9287V33.4111H140.166C138.616 33.4111 137.841 33.8646 137.841 34.7715C137.841 35.168 137.974 35.4779 138.238 35.7012C138.502 35.9245 138.842 36.0361 139.256 36.0361ZM149.189 29.6035H150.454V37H149.189V31.6064L145.778 37H144.513V29.6035H145.778V35.0039L149.189 29.6035ZM158.547 29.6035V37H157.276V30.6494H154.76L154.61 33.418C154.528 34.6895 154.314 35.5986 153.967 36.1455C153.626 36.6924 153.081 36.9772 152.334 37H151.828V35.8857L152.19 35.8584C152.6 35.8128 152.894 35.5758 153.072 35.1475C153.25 34.7191 153.364 33.9261 153.414 32.7686L153.55 29.6035H158.547ZM166.231 29.6035V37H164.96V34.1221H163.052L161.309 37H159.942L161.801 33.9307C161.327 33.7575 160.963 33.4909 160.708 33.1309C160.457 32.7663 160.332 32.3424 160.332 31.8594C160.332 31.1849 160.585 30.6426 161.09 30.2324C161.596 29.8177 162.273 29.6081 163.121 29.6035H166.231ZM161.603 31.873C161.603 32.2331 161.726 32.5247 161.972 32.748C162.218 32.9668 162.544 33.0785 162.95 33.083H164.96V30.6289H163.141C162.672 30.6289 162.298 30.7451 162.02 30.9775C161.742 31.2054 161.603 31.5039 161.603 31.873Z" fill="#272727"/>
<path d="M29.7438 41.3258L24.8067 39.1791L22.4746 43.9923L14.0337 21.3162L21.3143 18.6498L29.7438 41.3258Z" fill="#272727"/>
<path d="M2.33936 41.3258L7.27649 39.1791L9.60855 43.9923L18.0495 21.3162L10.7689 18.6498L2.33936 41.3258Z" fill="#272727"/>
<path d="M17.8221 0.640152C19.301 -0.580083 21.5421 0.0187359 22.2019 1.8039C22.6683 3.05803 23.9651 3.79243 25.2847 3.56646C27.1731 3.2388 28.8226 4.87708 28.4927 6.75263C28.2652 8.06325 29.016 9.35128 30.2674 9.81452C32.0648 10.4698 32.6677 12.7069 31.4391 14.1644C30.5745 15.1926 30.5745 16.6727 31.4391 17.7009C32.6677 19.1697 32.0648 21.3955 30.2674 22.0508C29.0046 22.514 28.2652 23.802 28.4927 25.1127C28.8226 26.9882 27.1731 28.6265 25.2847 28.2988C23.9651 28.0729 22.6683 28.8186 22.2019 30.0614C21.5421 31.8466 19.2896 32.4454 17.8221 31.2251C16.7869 30.3664 15.2967 30.3664 14.2615 31.2251C12.7826 32.4454 10.5416 31.8466 9.88177 30.0614C9.41535 28.8073 8.1185 28.0729 6.7989 28.2988C4.9105 28.6265 3.26099 26.9882 3.5909 25.1127C3.81841 23.802 3.0676 22.514 1.81626 22.0508C0.0188643 21.3955 -0.584058 19.1584 0.644539 17.7009C1.50911 16.6727 1.50911 15.1926 0.644539 14.1644C-0.584058 12.6956 0.0188643 10.4698 1.81626 9.81452C3.07898 9.35128 3.81841 8.06325 3.5909 6.75263C3.26099 4.87708 4.9105 3.2388 6.7989 3.56646C8.1185 3.79243 9.41535 3.04673 9.88177 1.8039C10.5416 0.0187359 12.794 -0.580083 14.2615 0.640152C15.2967 1.48754 16.7869 1.48754 17.8221 0.640152Z" fill="url(#paint0_linear)"/>
<defs>
<linearGradient id="paint0_linear" x1="16.0418" y1="0" x2="16.0418" y2="31.8653" gradientUnits="userSpaceOnUse">
<stop offset="0.0001" stop-color="#86C4FF"/>
<stop offset="0.119792" stop-color="#2A63A9"/>
<stop offset="1" stop-color="#40D1FF"/>
</linearGradient>
</defs>
</svg>
