<svg width="43" height="37" viewBox="0 0 43 37" fill="none" xmlns="http://www.w3.org/2000/svg">
<path d="M35.8711 17.0961C35.8711 16.304 35.1921 15.7382 34.5132 15.7382H10.75C9.95789 15.7382 9.39209 16.4171 9.39209 17.0961C9.39209 17.775 10.0711 18.454 10.75 18.454H32.3241C33.7817 18.454 35.8711 18.5536 35.8711 17.0961ZM10.75 21.3961C9.95789 21.3961 9.39209 22.075 9.39209 22.754C9.39209 23.4329 10.0711 24.1119 10.75 24.1119H20.5947C21.3869 24.1119 21.9526 23.4329 21.9526 22.754C21.9526 22.075 21.2737 21.3961 20.5947 21.3961H10.75ZM26.5921 12.9092C27.3842 12.9092 27.95 12.2303 27.95 11.5513C27.95 10.8724 27.2711 10.1934 26.5921 10.1934H17.5395C16.7474 10.1934 16.1816 10.8724 16.1816 11.5513C16.1816 12.2303 16.8605 12.9092 17.5395 12.9092H26.5921ZM40.7368 0.91449H2.26316C1.01842 0.91449 0 1.93291 0 3.17765V31.4671C0 32.7119 1.01842 33.7303 2.26316 33.7303H21.5C22.7499 33.7303 23.7632 32.717 23.7632 31.4671C23.7632 30.2172 22.7499 29.204 21.5 29.204H10.598C9.11959 29.204 7.9905 27.8306 6.94507 26.7852C5.89963 25.7398 4.52632 24.6107 4.52632 23.1322V11.5125C4.52632 10.0341 5.89963 8.90499 6.94507 7.85956C7.9905 6.81412 9.11958 5.44081 10.598 5.44081H32.402C33.8804 5.44081 35.0095 6.81412 36.0549 7.85956C37.1004 8.90499 38.4737 10.0341 38.4737 11.5125V20.4552C38.4737 23.4122 35.0789 26.247 35.0789 29.204C35.0789 31.7038 37.1054 33.7303 39.6053 33.7303H40.7368C41.9816 33.7303 43 32.7119 43 31.4671V3.17765C43 1.93291 41.9816 0.91449 40.7368 0.91449Z" fill="url(#paint0_linear)"/>
<path d="M29.421 32.2592C28.0717 32.2592 26.592 33.1678 26.592 34.5172V36.3329C26.592 36.6724 26.8183 36.7855 27.0447 36.7855C27.2909 36.7855 27.4839 36.5993 27.6824 36.4537L28.7833 35.6463C28.9818 35.5008 29.1748 35.3145 29.421 35.3145C29.6672 35.3145 29.8601 35.5008 30.0587 35.6463L31.1596 36.4537C31.3581 36.5993 31.5511 36.7855 31.7973 36.7855C32.0236 36.7855 32.2499 36.5592 32.2499 36.3329V34.5172C32.2499 33.1678 30.7703 32.2592 29.421 32.2592ZM29.421 29.4303C31.571 29.4303 33.3815 27.6197 33.3815 25.4697C33.3815 23.3197 31.571 21.5092 29.421 21.5092C27.271 21.5092 25.4604 23.3197 25.4604 25.4697C25.4604 27.6197 27.271 29.4303 29.421 29.4303Z" fill="url(#paint1_linear)"/>
<defs>
<linearGradient id="paint0_linear" x1="21.5" y1="0.91449" x2="21.5" y2="33.7303" gradientUnits="userSpaceOnUse">
<stop offset="0.0001" stop-color="#86C4FF"/>
<stop offset="0.119792" stop-color="#2A63A9"/>
<stop offset="1" stop-color="#40D1FF"/>
</linearGradient>
<linearGradient id="paint1_linear" x1="29.421" y1="21.5092" x2="29.421" y2="36.7855" gradientUnits="userSpaceOnUse">
<stop offset="0.0001" stop-color="#86C4FF"/>
<stop offset="0.119792" stop-color="#2A63A9"/>
<stop offset="1" stop-color="#40D1FF"/>
</linearGradient>
</defs>
</svg>
