<svg width="27" height="38" viewBox="0 0 27 38" fill="none" xmlns="http://www.w3.org/2000/svg">
<path d="M18.5 9C17.7 9 17 9.7 17 10.5V14.5C17 15.3 17.7 16 18.5 16C19.3 16 20 15.3 20 14.5V10.5C20 9.7 19.3 9 18.5 9Z" fill="url(#paint0_linear)"/>
<path d="M23 0H4C1.8 0 0 1.8 0 4V34C0 36.2 1.8 38 4 38H23C25.2 38 27 36.2 27 34V4C27 1.8 25.2 0 23 0ZM7.5 34H5.5C4.7 34 4 33.3 4 32.5C4 31.7 4.7 31 5.5 31H7.5C8.3 31 9 31.7 9 32.5C9 33.3 8.3 34 7.5 34ZM7.5 29H5.5C4.7 29 4 28.3 4 27.5C4 26.7 4.7 26 5.5 26H7.5C8.3 26 9 26.7 9 27.5C9 28.3 8.3 29 7.5 29ZM7.5 24H5.5C4.7 24 4 23.3 4 22.5C4 21.7 4.7 21 5.5 21H7.5C8.3 21 9 21.7 9 22.5C9 23.3 8.3 24 7.5 24ZM14.5 34H12.5C11.7 34 11 33.3 11 32.5C11 31.7 11.7 31 12.5 31H14.5C15.3 31 16 31.7 16 32.5C16 33.3 15.3 34 14.5 34ZM14.5 29H12.5C11.7 29 11 28.3 11 27.5C11 26.7 11.7 26 12.5 26H14.5C15.3 26 16 26.7 16 27.5C16 28.3 15.3 29 14.5 29ZM14.5 24H12.5C11.7 24 11 23.3 11 22.5C11 21.7 11.7 21 12.5 21H14.5C15.3 21 16 21.7 16 22.5C16 23.3 15.3 24 14.5 24ZM23 32.5C23 33.3 22.3 34 21.5 34H19.5C18.7 34 18 33.3 18 32.5V27.5C18 26.7 18.7 26 19.5 26H21.5C22.3 26 23 26.7 23 27.5V32.5ZM21.5 24H19.5C18.7 24 18 23.3 18 22.5C18 21.7 18.7 21 19.5 21H21.5C22.3 21 23 21.7 23 22.5C23 23.3 22.3 24 21.5 24ZM23 16.5C23 17.1 22.6 17.5 22 17.5H5C4.4 17.5 4 17.1 4 16.5V7.5C4 6.9 4.4 6.5 5 6.5H22C22.6 6.5 23 6.9 23 7.5V16.5Z" fill="url(#paint1_linear)"/>
<defs>
<linearGradient id="paint0_linear" x1="18.5" y1="9" x2="18.5" y2="16" gradientUnits="userSpaceOnUse">
<stop offset="0.0001" stop-color="#86C4FF"/>
<stop offset="0.119792" stop-color="#2A63A9"/>
<stop offset="1" stop-color="#40D1FF"/>
</linearGradient>
<linearGradient id="paint1_linear" x1="13.5" y1="0" x2="13.5" y2="38" gradientUnits="userSpaceOnUse">
<stop offset="0.0001" stop-color="#86C4FF"/>
<stop offset="0.119792" stop-color="#2A63A9"/>
<stop offset="1" stop-color="#40D1FF"/>
</linearGradient>
</defs>
</svg>
