<svg width="39" height="32" viewBox="0 0 39 32" fill="none" xmlns="http://www.w3.org/2000/svg">
<path d="M19.5 12.5C16.7 12.5 14.5 14.5 14.5 18.5C14.5 22.5 16.7 24.5 19.5 24.5C22.3 24.5 24.5 22.5 24.5 18.5C24.5 14.5 22.3 12.5 19.5 12.5ZM8.99998 16.5C7.89998 16.5 6.99998 17.4 6.99998 18.5C6.99998 19.6 7.89998 20.5 8.99998 20.5C10.1 20.5 11 19.6 11 18.5C11 17.4 10.1 16.5 8.99998 16.5ZM30 16.5C28.9 16.5 28 17.4 28 18.5C28 19.6 28.9 20.5 30 20.5C31.1 20.5 32 19.6 32 18.5C32 17.4 31.1 16.5 30 16.5ZM33.6 0H5.59998C4.79998 0 4.09998 0.7 4.09998 1.5C4.09998 2.3 4.79998 3 5.59998 3H33.6C34.4 3 35.1 2.3 35.1 1.5C35.1 0.6 34.4 0 33.6 0Z" fill="url(#paint0_linear)"/>
<path d="M38.5 6.20001C38.4 6.10001 38.3 6.00002 38.2 5.90002C37.9 5.60002 37.4 5.40002 36.9 5.40002H32.6H6.3H2C0.9 5.40002 0 6.30002 0 7.40002V29.4C0 30.5 0.9 31.4 2 31.4H37C38.1 31.4 39 30.5 39 29.4V7.40002C39 7.00002 38.8 6.50001 38.5 6.20001ZM35.5 19.9624C35.5 21.9162 33.694 23.431 32.3125 24.8125C30.931 26.194 29.4161 28 27.4624 28H11.5376C9.58385 28 8.06903 26.194 6.6875 24.8125C5.30597 23.431 3.5 21.9162 3.5 19.9624V17.0376C3.5 15.0839 5.30597 13.569 6.6875 12.1875C8.06903 10.806 9.58385 9.00002 11.5376 9.00002H27.4624C29.4161 9.00002 30.931 10.806 32.3125 12.1875C33.694 13.569 35.5 15.0839 35.5 17.0376V19.9624Z" fill="url(#paint1_linear)"/>
<defs>
<linearGradient id="paint0_linear" x1="19.6" y1="0" x2="19.6" y2="24.5" gradientUnits="userSpaceOnUse">
<stop offset="0.0001" stop-color="#86C4FF"/>
<stop offset="0.119792" stop-color="#2A63A9"/>
<stop offset="1" stop-color="#40D1FF"/>
</linearGradient>
<linearGradient id="paint1_linear" x1="19.5" y1="5.40002" x2="19.5" y2="31.4" gradientUnits="userSpaceOnUse">
<stop offset="0.0001" stop-color="#86C4FF"/>
<stop offset="0.119792" stop-color="#2A63A9"/>
<stop offset="1" stop-color="#40D1FF"/>
</linearGradient>
</defs>
</svg>
