<svg width="35" height="42" viewBox="0 0 35 42" fill="none" xmlns="http://www.w3.org/2000/svg">
<path d="M31.0279 32.1155C29.9051 31.4666 29 30.3756 29 29.0788C29 28.4788 28.6 28.0788 28 28.0788H24.343C23.049 28.0788 22 29.1278 22 30.4218C22 30.8515 21.8818 31.2729 21.6584 31.64L19.2423 35.6093C19.2142 35.6554 19.175 35.7008 19.1455 35.7461C19.0472 35.8969 19 36.0799 19 36.2599V37.6788C19 38.4788 18.3 39.1788 17.5 39.1788C16.7 39.1788 16 38.4788 16 37.6788V36.2599C16 36.0799 15.9528 35.8969 15.8545 35.7461C15.825 35.7008 15.7858 35.6554 15.7577 35.6093L13.3416 31.64C13.1182 31.2729 13 30.8515 13 30.4218C13 29.1278 11.951 28.0788 10.657 28.0788H7C6.4 28.0788 6 28.4788 6 29.0788C6 30.3678 5.07973 31.4441 3.96013 32.0829C1.61332 33.4219 0 35.9642 0 38.8788V40.5788C0 40.8788 0.2 41.0788 0.5 41.0788H34.5C34.8 41.0788 35 40.8788 35 40.5788V38.8788C35 35.9593 33.3812 33.4756 31.0279 32.1155Z" fill="url(#paint0_linear)"/>
<path d="M25 21.0788C24.4477 21.0788 24.0127 20.624 23.8753 20.0891C23.432 18.3637 21.8587 17.0788 20 17.0788H15C13.1413 17.0788 11.568 18.3637 11.1247 20.0891C10.9873 20.624 10.5523 21.0788 10 21.0788C9.4 21.0788 9 21.4788 9 22.0788C9 22.6788 9.4 23.0788 10 23.0788H14C15.9078 23.0788 19.0922 23.0788 21 23.0788H25C25.6 23.0788 26 22.6788 26 22.0788C26 21.5788 25.6 21.0788 25 21.0788ZM30.5 10.0788C28.9036 10.0788 27.5024 9.01602 27.072 7.47876L25.7 2.57876C25.5 1.67876 24.9 0.878782 24 0.478782C23 -0.121218 21.7 -0.12123 20.6 0.27877C18.6 0.97877 16.5 0.97877 14.5 0.27877C13.4 -0.12123 12.1 -0.0212176 11.1 0.478782C10.2 0.978782 9.6 1.67876 9.4 2.57876L7.6 8.97878C7.42288 9.62822 6.83301 10.0788 6.15985 10.0788H4.6C3.8 10.0788 3.1 10.7788 3.1 11.5788C3.1 12.3788 3.8 13.0788 4.6 13.0788H5.5C6.32843 13.0788 7 13.7503 7 14.5788C7 15.4072 7.67157 16.0788 8.5 16.0788C9.32843 16.0788 10 15.4072 10 14.5788C10 13.7503 10.6716 13.0788 11.5 13.0788H23.5C24.3284 13.0788 25 13.7503 25 14.5788C25 15.4072 25.6716 16.0788 26.5 16.0788C27.3284 16.0788 28 15.4072 28 14.5788C28 13.7503 28.6716 13.0788 29.5 13.0788H30.5C31.3 13.0788 32 12.3788 32 11.5788C32 10.7788 31.3 10.0788 30.5 10.0788Z" fill="url(#paint1_linear)"/>
<defs>
<linearGradient id="paint0_linear" x1="17.5" y1="0" x2="17.5" y2="41.0788" gradientUnits="userSpaceOnUse">
<stop offset="0.0001" stop-color="#86C4FF"/>
<stop offset="0.119792" stop-color="#2A63A9"/>
<stop offset="1" stop-color="#40D1FF"/>
</linearGradient>
<linearGradient id="paint1_linear" x1="17.5" y1="0" x2="17.5" y2="41.0788" gradientUnits="userSpaceOnUse">
<stop offset="0.0001" stop-color="#86C4FF"/>
<stop offset="0.119792" stop-color="#2A63A9"/>
<stop offset="1" stop-color="#40D1FF"/>
</linearGradient>
</defs>
</svg>
