<svg width="16" height="16" viewBox="0 0 16 16" fill="none" xmlns="http://www.w3.org/2000/svg">
<path d="M15.5239 9.68865C16.6814 4.48784 12.1246 -0.236849 6.77326 0.670131C3.86815 -1.13251 0 0.904534 0 4.36065C0 5.16441 0.221779 5.9169 0.607396 6.5655C-0.468201 11.7783 4.1259 16.4351 9.47258 15.4662C13.2522 17.4646 17.4287 13.4791 15.5239 9.68865ZM10.437 12.8251C9.03302 13.4025 6.72265 13.4058 5.32471 12.674C3.33135 11.6112 2.97704 9.21851 4.69666 9.21851C5.99271 9.21851 5.58245 10.7295 6.89115 11.3455C7.49188 11.6231 8.78327 11.6518 9.53385 11.1457C10.2751 10.6496 10.2072 9.86912 9.80425 9.4962C8.73665 8.51064 5.68168 8.9022 4.28507 7.17681C3.67834 6.42832 3.56379 5.10781 4.30971 4.15022C5.60976 2.47743 9.42463 2.37555 11.065 3.63879C12.5795 4.81081 12.1706 6.36639 10.9484 6.36639C9.47857 6.36639 10.2511 4.44322 7.87817 4.44322C6.15788 4.44322 5.48122 5.66651 6.69268 6.26184C8.33504 7.07759 12.5202 6.80523 12.5202 9.99298C12.5169 11.3195 11.7037 12.3084 10.437 12.8251Z" fill="white"/>
</svg>
